<?xml version="1.0" encoding="utf-8"?>
<!-- Generator: Adobe Illustrator 16.0.0, SVG Export Plug-In . SVG Version: 6.00 Build 0)  -->
<!DOCTYPE svg PUBLIC "-//W3C//DTD SVG 1.1//EN" "http://www.w3.org/Graphics/SVG/1.1/DTD/svg11.dtd">
<svg version="1.1" id="Layer_1" xmlns:sketch="http://www.bohemiancoding.com/sketch/ns"
	 xmlns="http://www.w3.org/2000/svg" xmlns:xlink="http://www.w3.org/1999/xlink" x="0px" y="0px" width="247px" height="40px"
	 viewBox="0 0 247 40" enable-background="new 0 0 247 40" xml:space="preserve">
<title>Slice 1</title>
<desc>Created with Sketch.</desc>
<g id="Page-1" sketch:type="MSPage">
	<path id="Shape" sketch:type="MSShapeGroup" fill="#3D7BA4" d="M245.26,0.055c-0.544,0.191-27.354,9.639-27.883,9.826
		c-0.449,0.158-0.548,0.545-0.016,0.756c0.633,0.254,5.994,2.402,5.994,2.402l0,0l3.554,1.423c0,0,17.115-12.567,17.346-12.738
		c0.233-0.17,0.502,0.15,0.333,0.333s-12.43,13.444-12.43,13.444v0.003l-0.714,0.794l0.946,0.508c0,0,7.343,3.955,7.867,4.235
		c0.459,0.247,1.055,0.043,1.188-0.527c0.156-0.673,4.493-19.362,4.59-19.779C246.159,0.193,245.801-0.137,245.26,0.055
		L245.26,0.055z M226.877,22.997c0,0.389,0.22,0.497,0.523,0.223c0.396-0.361,4.5-4.044,4.5-4.044l-5.023-2.597V22.997
		L226.877,22.997z"/>
	<circle id="Oval-1" sketch:type="MSShapeGroup" fill="#3D7BA4" cx="222.5" cy="26.645" r="2.5">
	</circle>
	<ellipse id="Oval-2" sketch:type="MSShapeGroup" fill="#3D7BA4" cx="215" cy="32.145" rx="2" ry="2">
	</ellipse>
	<circle id="Oval-3" sketch:type="MSShapeGroup" fill="#3D7BA4" cx="206.5" cy="35.645" r="1.5">
	</circle>
	<ellipse id="Oval-4" sketch:type="MSShapeGroup" fill="#3D7BA4" cx="197" cy="38.145" rx="1" ry="1">
	</ellipse>
	<path id="GET-A-NEWSLETTER" sketch:type="MSShapeGroup" fill="#FFFFFF" d="M0.104,16.272c0-1.296,0.204-2.452,0.612-3.468
		c0.408-1.016,0.96-1.876,1.656-2.58C3.068,9.52,3.884,8.984,4.82,8.616c0.936-0.368,1.932-0.552,2.988-0.552
		c1.104,0,2.06,0.208,2.868,0.624c0.808,0.416,1.468,0.888,1.98,1.416l-1.944,2.184c-0.384-0.368-0.788-0.656-1.212-0.864
		s-0.972-0.312-1.644-0.312c-0.608,0-1.164,0.116-1.668,0.348s-0.94,0.564-1.308,0.996c-0.368,0.432-0.652,0.96-0.852,1.584
		c-0.2,0.624-0.3,1.328-0.3,2.112c0,1.616,0.364,2.868,1.092,3.756c0.728,0.888,1.828,1.332,3.3,1.332c0.32,0,0.632-0.04,0.936-0.12
		c0.304-0.08,0.552-0.2,0.744-0.36v-2.688H7.208v-2.88h5.712v7.201c-0.56,0.527-1.296,0.976-2.208,1.344
		c-0.912,0.367-1.92,0.552-3.024,0.552c-1.056,0-2.044-0.172-2.964-0.517C3.804,23.428,3,22.92,2.312,22.248
		s-1.228-1.508-1.62-2.508S0.104,17.584,0.104,16.272L0.104,16.272z M16.16,8.352h9.792v2.976h-6.264v3.144h5.328v2.952h-5.328v3.6
		h6.504V24H16.16V8.352z M32.36,11.328h-4.296V8.352h12.144v2.976h-4.296V24H32.36V11.328z M54.272,17.52l-0.36-1.44
		c-0.224-0.784-0.44-1.616-0.648-2.496s-0.416-1.728-0.624-2.544h-0.096c-0.192,0.832-0.388,1.684-0.588,2.556
		c-0.2,0.872-0.412,1.7-0.636,2.484l-0.384,1.44H54.272z M54.992,20.28h-4.776L49.256,24h-3.6l4.896-15.648H54.8L59.696,24h-3.744
		L54.992,20.28z M66.392,8.352h3.624l4.08,7.776l1.536,3.456h0.096c-0.08-0.832-0.172-1.76-0.276-2.784
		c-0.104-1.024-0.156-2-0.156-2.928v-5.52h3.36V24h-3.624l-4.08-7.8l-1.536-3.408H69.32c0.08,0.864,0.172,1.792,0.276,2.784
		c0.104,0.992,0.156,1.952,0.156,2.88V24h-3.36V8.352z M82.352,8.352h9.792v2.976H85.88v3.144h5.328v2.952H85.88v3.6h6.504V24
		H82.352V8.352z M93.992,8.352h3.624l1.08,7.32c0.096,0.816,0.2,1.636,0.312,2.46c0.112,0.824,0.216,1.652,0.312,2.484h0.096
		c0.16-0.832,0.316-1.66,0.468-2.484c0.152-0.824,0.308-1.644,0.468-2.46l1.68-7.32h3l1.68,7.32c0.16,0.8,0.316,1.612,0.468,2.436
		c0.152,0.824,0.308,1.66,0.468,2.508h0.096c0.112-0.848,0.22-1.68,0.324-2.496s0.212-1.632,0.324-2.448l1.08-7.32h3.384L110.072,24
		h-4.44l-1.536-7.104c-0.128-0.608-0.244-1.22-0.348-1.836c-0.104-0.616-0.196-1.212-0.276-1.788h-0.096
		c-0.096,0.576-0.196,1.172-0.3,1.788c-0.104,0.616-0.22,1.228-0.348,1.836L101.264,24h-4.368L93.992,8.352z M116.024,19.608
		c0.56,0.48,1.18,0.872,1.86,1.176c0.68,0.304,1.348,0.456,2.004,0.456c0.736,0,1.284-0.137,1.644-0.408
		c0.36-0.271,0.54-0.64,0.54-1.104c0-0.24-0.052-0.448-0.156-0.624s-0.256-0.332-0.456-0.468c-0.2-0.136-0.44-0.264-0.72-0.384
		c-0.28-0.12-0.588-0.252-0.924-0.396l-2.04-0.864c-0.4-0.16-0.788-0.368-1.164-0.624c-0.376-0.256-0.712-0.556-1.008-0.9
		c-0.296-0.344-0.532-0.744-0.708-1.2s-0.264-0.972-0.264-1.548c0-0.64,0.136-1.244,0.408-1.812
		c0.272-0.568,0.656-1.064,1.152-1.488s1.084-0.756,1.764-0.996c0.68-0.24,1.428-0.36,2.244-0.36c0.912,0,1.812,0.176,2.7,0.528
		c0.888,0.352,1.668,0.864,2.34,1.536l-1.8,2.232c-0.512-0.4-1.024-0.708-1.536-0.924c-0.512-0.216-1.08-0.324-1.704-0.324
		c-0.608,0-1.092,0.124-1.452,0.372s-0.54,0.596-0.54,1.044c0,0.24,0.06,0.444,0.18,0.612c0.12,0.168,0.288,0.32,0.504,0.456
		c0.216,0.136,0.468,0.264,0.756,0.384s0.6,0.252,0.936,0.396l2.016,0.816c0.96,0.384,1.716,0.912,2.268,1.584
		c0.552,0.672,0.827,1.56,0.827,2.664c0,0.656-0.131,1.276-0.396,1.86c-0.264,0.584-0.647,1.097-1.151,1.536
		c-0.504,0.439-1.125,0.792-1.86,1.057c-0.736,0.264-1.568,0.396-2.496,0.396c-1.024,0-2.044-0.188-3.06-0.563
		c-1.016-0.377-1.924-0.94-2.724-1.692L116.024,19.608z M128.359,8.352h3.529v12.671h6.191V24h-9.721V8.352z M140.792,8.352h9.792
		v2.976h-6.264v3.144h5.328v2.952h-5.328v3.6h6.504V24h-10.032V8.352z M156.992,11.328h-4.297V8.352h12.145v2.976h-4.296V24h-3.552
		V11.328z M170.336,11.328h-4.296V8.352h12.144v2.976h-4.295V24h-3.553V11.328z M180.632,8.352h9.792v2.976h-6.264v3.144h5.328
		v2.952h-5.328v3.6h6.504V24h-10.032V8.352z M197.312,15.552h1.823c0.929,0,1.636-0.196,2.124-0.588
		c0.488-0.392,0.732-0.972,0.732-1.74s-0.244-1.304-0.732-1.608c-0.488-0.304-1.195-0.456-2.124-0.456h-1.823V15.552z M202.256,24
		l-3-5.64h-1.943V24h-3.528V8.352h5.64c0.832,0,1.612,0.08,2.34,0.24c0.729,0.16,1.364,0.428,1.908,0.804s0.977,0.876,1.296,1.5
		c0.32,0.624,0.48,1.4,0.48,2.328c0,1.152-0.253,2.1-0.757,2.844c-0.504,0.744-1.18,1.3-2.027,1.668L206.216,24H202.256z"/>
</g>
</svg>
